<svg width="14" height="14" viewBox="0 0 14 14" fill="none" xmlns="http://www.w3.org/2000/svg">
<g clip-path="url(#clip0_6005_106)">
<path fill-rule="evenodd" clip-rule="evenodd" d="M2.40625 2.1875C2.34824 2.1875 2.2926 2.21055 2.25157 2.25157C2.21055 2.2926 2.1875 2.34824 2.1875 2.40625V8.96875C2.1875 9.0895 2.2855 9.1875 2.40625 9.1875H4.15625C4.3303 9.1875 4.49722 9.25662 4.62029 9.37974C4.74336 9.50276 4.8125 9.66971 4.8125 9.84375V11.76L7.1925 9.38C7.31546 9.25689 7.48226 9.18767 7.65625 9.1875H11.5938C11.6518 9.1875 11.7074 9.16449 11.7484 9.12345C11.7895 9.08241 11.8125 9.02676 11.8125 8.96875V2.40625C11.8125 2.34824 11.7895 2.2926 11.7484 2.25157C11.7074 2.21055 11.6518 2.1875 11.5938 2.1875H2.40625ZM0.875 2.40625C0.875 1.561 1.561 0.875 2.40625 0.875H11.5938C12.439 0.875 13.125 1.561 13.125 2.40625V8.96875C13.125 9.37484 12.9637 9.7643 12.6765 10.0515C12.3893 10.3387 11.9998 10.5 11.5938 10.5H7.9275L5.67612 12.7514C5.49783 12.9296 5.27071 13.0509 5.02347 13.1001C4.77622 13.1492 4.51996 13.124 4.28706 13.0275C4.05416 12.9311 3.85508 12.7677 3.715 12.5582C3.57491 12.3486 3.50009 12.1022 3.5 11.8501V10.5H2.40625C2.00014 10.5 1.61066 10.3387 1.32349 10.0515C1.03632 9.7643 0.875 9.37484 0.875 8.96875V2.40625Z" fill="#73717C"/>
</g>
<defs>
<clipPath id="clip0_6005_106">
<rect width="14" height="14" fill="white"/>
</clipPath>
</defs>
</svg>
