<svg width="16" height="16" viewBox="0 0 16 16" fill="none" xmlns="http://www.w3.org/2000/svg">
<path d="M1.46683 6.50665H2.96016V7.95998H1.46683V6.50665ZM3.30016 6.50665H4.80016V7.95998H3.30016V6.50665ZM3.30016 4.63998H4.80016V6.09332H3.30016V4.63998ZM5.14016 6.50665H6.63349V7.95998H5.14016V6.50665ZM5.14016 4.63998H6.63349V6.09332H5.14016V4.63998ZM6.97349 6.50665H8.47349V7.95998H6.97349V6.50665ZM6.97349 4.63998H8.47349V6.09332H6.97349V4.63998ZM8.81349 6.50665H10.3068V7.95998H8.81349V6.50665ZM6.97349 2.77332H8.47349V4.22665H6.97349V2.77332ZM3.55349 10.06C3.78683 10.06 3.97349 10.24 3.97349 10.4666C3.97349 10.6866 3.78683 10.8733 3.55349 10.8733C3.33349 10.8733 3.14016 10.6866 3.14016 10.4666C3.14016 10.24 3.33349 10.06 3.55349 10.06ZM15.1268 7.25998L15.3335 7.37332L15.2268 7.57998C14.8002 8.38665 13.9135 8.63332 13.0468 8.59332C11.7468 11.7333 8.91349 13.2266 5.48683 13.2266C3.71349 13.2266 2.08683 12.58 1.16016 11.0533L1.14683 11.0266L1.00016 10.76C0.700161 10.0866 0.593494 9.35332 0.666827 8.61332L0.686827 8.39332H10.5335C10.8868 8.39332 11.2468 8.33332 11.5735 8.22665L12.0802 7.99998C11.8735 7.73332 11.7602 7.39332 11.7335 7.05998C11.6868 6.60665 11.7802 5.99998 12.1002 5.66665L12.2602 5.47998L12.4468 5.62665C12.9202 5.99998 13.3135 6.51332 13.3868 7.09998C13.9535 6.93998 14.6268 6.97332 15.1268 7.25998ZM3.56016 11.2333C4.00016 11.2333 4.33349 10.8866 4.33349 10.4666C4.33349 10.04 4.00016 9.69332 3.55349 9.69332C3.12016 9.69332 2.76683 10.04 2.76683 10.4666C2.76683 10.8933 3.12016 11.2333 3.56016 11.2333Z" fill="#1E9CEF"/>
</svg>
