<svg width="13" height="15" viewBox="0 0 13 15" fill="none" xmlns="http://www.w3.org/2000/svg">
<path fill-rule="evenodd" clip-rule="evenodd" d="M1.64062 1.40625C1.51118 1.40625 1.40625 1.51118 1.40625 1.64062V13.3594C1.40625 13.4888 1.51118 13.5938 1.64062 13.5938H10.5469C10.6763 13.5938 10.7812 13.4888 10.7812 13.3594V4.3727C10.7812 4.31054 10.7566 4.25093 10.7126 4.20697L7.98053 1.4749C7.93657 1.43094 7.87696 1.40625 7.8148 1.40625H1.64062ZM0 1.64062C0 0.734533 0.734533 0 1.64062 0H7.8148C8.24992 0 8.66722 0.172851 8.9749 0.480528L11.707 3.2126C12.0146 3.52028 12.1875 3.93758 12.1875 4.3727V13.3594C12.1875 14.2655 11.453 15 10.5469 15H1.64062C0.734533 15 0 14.2655 0 13.3594V1.64062ZM5.84061 4.92923C6.22893 4.92663 6.54583 5.23932 6.54842 5.62764L6.55781 7.03125H7.96141C8.34973 7.03125 8.66453 7.34605 8.66453 7.73438C8.66453 8.1227 8.34973 8.4375 7.96141 8.4375H6.5625V9.85047C6.5625 10.2388 6.2477 10.5536 5.85938 10.5536C5.47105 10.5536 5.15625 10.2388 5.15625 9.85047V8.44219L3.74795 8.45155C3.35964 8.45412 3.04275 8.14142 3.04017 7.75311C3.03759 7.36479 3.35029 7.04791 3.73861 7.04533L5.15156 7.03594L5.14221 5.63704C5.13961 5.24873 5.4523 4.93183 5.84061 4.92923Z" fill="#1F2328"/>
</svg>
