<svg width="22" height="22" viewBox="0 0 22 22" fill="none" xmlns="http://www.w3.org/2000/svg">
<g clip-path="url(#clip0_6001_158)">
<path d="M11.0008 21.9855C16.9415 21.9855 21.7574 17.0671 21.7574 11C21.7574 4.9329 16.9415 0.0145264 11.0008 0.0145264C5.06004 0.0145264 0.244141 4.9329 0.244141 11C0.244141 17.0671 5.06004 21.9855 11.0008 21.9855Z" fill="#F4F5F5"/>
<path d="M11.0004 0.0559082C4.92599 0.0559082 0 4.96832 0 11.0291C0 15.878 3.15207 19.9911 7.52239 21.4417C8.07188 21.5431 8.27418 21.2038 8.27418 20.9138C8.27418 20.6521 8.26358 19.7875 8.25917 18.8709C5.19897 19.5346 4.55319 17.5763 4.55319 17.5763C4.05317 16.3081 3.33141 15.9706 3.33141 15.9706C2.33313 15.2893 3.4065 15.3034 3.4065 15.3034C4.51078 15.381 5.09296 16.4341 5.09296 16.4341C6.07445 18.1121 7.66639 17.6265 8.29362 17.3463C8.39256 16.6368 8.67703 16.153 8.99241 15.8789C6.54885 15.6013 3.98073 14.6601 3.98073 10.4553C3.98073 9.25764 4.41007 8.27851 5.11416 7.51001C5.0002 7.23416 4.62386 6.11842 5.22106 4.60698C5.22106 4.60698 6.14512 4.31174 8.2468 5.73153C9.12404 5.48829 10.0649 5.36667 11.0004 5.36226C11.9351 5.36667 12.8768 5.48829 13.7559 5.73153C15.8558 4.31174 16.7781 4.60698 16.7781 4.60698C17.377 6.11842 16.9998 7.23504 16.8858 7.51089C17.5908 8.27939 18.0175 9.25852 18.0175 10.4562C18.0175 14.6706 15.4441 15.5995 12.9943 15.871C13.3892 16.2112 13.7408 16.8792 13.7408 17.9033C13.7408 19.3715 13.7285 20.5534 13.7285 20.9147C13.7285 21.2064 13.9264 21.5492 14.4838 21.4408C18.8523 19.9884 22 15.8763 22 11.0291C22 4.96832 17.0749 0.0559082 11.0004 0.0559082Z" fill="#0B151D"/>
</g>
<defs>
<clipPath id="clip0_6001_158">
<rect width="22" height="22" fill="white"/>
</clipPath>
</defs>
</svg>
