<svg width="16" height="16" viewBox="0 0 16 16" fill="none" xmlns="http://www.w3.org/2000/svg">
<path d="M1.16986 6.81872L1.3969 6.52901L4.28142 6.52765L4.0957 6.81735L1.16986 6.81872ZM3.78602 7.53141L3.8817 7.2417L0.227042 7.24422L0 7.53393L3.78602 7.53141ZM3.681 8.24661L3.70862 7.95691L2.04622 7.95828L1.88487 8.24798L3.681 8.24661ZM14.2842 10.5154C12.6848 11.3964 10.4997 11.0233 9.91546 9.11299C9.57021 9.79241 9.00651 10.3493 8.33473 10.6668C6.74306 11.4191 4.58207 10.7631 4.30413 8.70127C4.10059 6.7251 5.70002 5.50395 6.64553 5.19565C8.14817 4.72756 9.63016 5.27759 10.1426 6.64649L8.52854 7.06955C8.35707 6.59233 7.42504 6.24867 6.70859 6.76666C5.5818 7.46188 5.60262 9.2114 6.964 9.4712C7.6708 9.56181 8.14558 9.21256 8.50149 8.67537L6.74877 8.67912L7.31195 7.46473H9.93871C11.0764 4.25516 15.5134 4.3957 15.9644 7.27975C16.1247 8.30481 15.7747 9.69425 14.2842 10.5154ZM12.8265 6.54438C11.6121 6.80569 11.3094 7.87843 11.4968 8.56574C11.6963 9.29718 12.469 9.77679 13.4494 9.31814C15.0207 8.58304 14.6088 6.16087 12.8265 6.54438Z" fill="#82AAFF"/>
</svg>
