<svg width="14" height="14" viewBox="0 0 14 14" fill="none" xmlns="http://www.w3.org/2000/svg">
<g clip-path="url(#clip0_6005_104)">
<path fill-rule="evenodd" clip-rule="evenodd" d="M6.69813 13.0514C6.79267 13.1003 6.89634 13.1248 7 13.1248C7.10366 13.1248 7.20733 13.1003 7.30188 13.0514C7.40094 12.9995 7.49874 12.9453 7.59605 12.8902C7.77753 12.7874 8.0345 12.6368 8.34188 12.4424C8.95527 12.0546 9.7762 11.4887 10.6004 10.7783C12.211 9.3898 14 7.30652 14 4.8125C14 2.48132 12.1749 0.875 10.2812 0.875C8.92728 0.875 7.74122 1.57632 7 2.64246C6.25878 1.57632 5.07269 0.875 3.71875 0.875C1.82507 0.875 0 2.48132 0 4.8125C0 7.30652 1.78902 9.3898 3.39964 10.7783C4.22377 11.4887 5.04471 12.0546 5.65812 12.4424C5.9655 12.6368 6.22247 12.7874 6.40395 12.8902C6.50126 12.9453 6.59906 12.9996 6.69813 13.0514ZM1.3125 4.8125C1.3125 3.20618 2.54993 2.1875 3.71875 2.1875C4.92029 2.1875 6.00144 3.05008 6.369 4.33653C6.44949 4.61827 6.707 4.8125 7 4.8125C7.293 4.8125 7.55051 4.61827 7.631 4.33653C7.99856 3.05008 9.0797 2.1875 10.2812 2.1875C11.4501 2.1875 12.6875 3.20618 12.6875 4.8125C12.6875 6.69348 11.3046 8.43828 9.74339 9.78416C8.98161 10.4409 8.21659 10.9688 7.64054 11.333C7.38144 11.4968 7.16195 11.6266 7 11.7192C6.83805 11.6266 6.61856 11.4968 6.35947 11.333C5.78342 10.9688 5.01841 10.4409 4.25661 9.78416C2.69536 8.43828 1.3125 6.69348 1.3125 4.8125Z" fill="#73717C"/>
</g>
<defs>
<clipPath id="clip0_6005_104">
<rect width="14" height="14" fill="white"/>
</clipPath>
</defs>
</svg>
