<svg width="14" height="14" viewBox="0 0 14 14" fill="none" xmlns="http://www.w3.org/2000/svg">
<g clip-path="url(#clip0_6005_157)">
<path d="M8.34188 12.4424C8.0345 12.6368 7.77752 12.7874 7.59605 12.8902C7.49873 12.9453 7.40102 12.9997 7.30188 13.0514C7.20733 13.1003 7.10366 13.1248 7 13.1248C6.89634 13.1248 6.79267 13.1003 6.69813 13.0514C6.59892 12.9999 6.50124 12.9453 6.40395 12.8902C6.22248 12.7874 5.9655 12.6368 5.65812 12.4424C5.04471 12.0546 4.22377 11.4888 3.39964 10.7783C1.78902 9.3898 0 7.30652 0 4.8125C0 2.48132 1.82507 0.875 3.71875 0.875C5.07269 0.875 6.25878 1.57632 7 2.64246C7.74122 1.57632 8.92727 0.875 10.2812 0.875C12.1749 0.875 14 2.48132 14 4.8125C14 7.30652 12.211 9.3898 10.6004 10.7783C9.7762 11.4888 8.95527 12.0546 8.34188 12.4424Z" fill="#FF26A7"/>
</g>
<defs>
<clipPath id="clip0_6005_157">
<rect width="14" height="14" fill="white"/>
</clipPath>
</defs>
</svg>
