<svg width="16" height="16" viewBox="0 0 16 16" fill="none" xmlns="http://www.w3.org/2000/svg">
<g clip-path="url(#clip0_6003_37)">
<path fill-rule="evenodd" clip-rule="evenodd" d="M0.0250071 9.68409L1.39757 3.71306C1.46838 3.40532 1.68639 3.13429 1.9731 2.99731L7.53649 0.339147C7.82281 0.200855 8.1267 0.207858 8.46 0.339147L14.024 2.99586C14.3108 3.13284 14.5288 3.40387 14.5997 3.71172L15.9742 9.68266C16.0452 9.99061 15.9672 10.3288 15.7687 10.5756L11.9194 15.3641C11.7207 15.6106 11.4058 15.7606 11.0876 15.7604L4.91245 15.7619C4.59415 15.762 4.27921 15.6116 4.08064 15.3649L0.229895 10.577C0.0133479 10.3062 -0.0378744 10.0055 0.0250071 9.68409ZM7.71221 10.2319L6.77586 11.9236C7.60668 12.1895 8.42555 12.2032 9.23062 11.926L8.2927 10.2312C8.12406 9.9935 7.83768 10.0176 7.71221 10.2319ZM6.31354 9.28145L4.41093 9.60434C4.70452 10.4167 5.25346 11.0789 5.94268 11.5211L6.67974 9.7397C6.76092 9.47399 6.58641 9.25655 6.31354 9.28145ZM9.31958 9.72874L10.0647 11.5283C10.7828 11.0708 11.3202 10.3871 11.6011 9.59795L9.68185 9.27358C9.40201 9.2468 9.23454 9.47864 9.31958 9.72874ZM7.3334 8.15528L7.4658 8.73018L7.99974 8.98688L8.53205 8.73094L8.66432 8.15604L8.29579 7.69533H7.70281L7.3334 8.15528ZM9.93779 8.15998L11.8026 8.69707C11.8876 7.84097 11.6781 7.04762 11.2474 6.3014L9.80785 7.58974C9.63902 7.78729 9.65249 8.03228 9.93779 8.15998ZM6.18914 7.59528L4.74169 6.30064C4.31211 7.00045 4.10858 7.83989 4.20296 8.70337L6.05844 8.16785C6.30783 8.06697 6.38948 7.81114 6.18914 7.59528ZM9.09514 6.69589L10.6702 5.5792C10.076 4.99728 9.30049 4.61766 8.46202 4.51443L8.57143 6.44473C8.61296 6.7688 8.86062 6.82051 9.09514 6.69589ZM5.31659 5.57845L6.90186 6.70229C7.16115 6.86262 7.40731 6.69128 7.42875 6.44782L7.53815 4.51443C6.67154 4.63289 5.90792 4.99129 5.31659 5.57845ZM13.9007 10.028C13.743 9.97701 13.2524 9.75964 12.9273 9.71141C12.8273 9.70354 12.7763 9.75126 12.721 9.7878L12.5635 9.76024C12.2103 10.8701 11.4582 11.8311 10.4387 12.4331L10.5001 12.582C10.4768 12.6441 10.4418 12.7037 10.4717 12.7993C10.6105 13.134 10.8171 13.3973 10.9963 13.6782C11.3289 14.2353 10.6749 14.6214 10.354 14.0615C10.2307 13.7173 10.1243 13.2882 9.97248 13.0403C9.91625 12.9573 9.84735 12.9467 9.78423 12.9261L9.70547 12.7844C8.55589 13.2079 7.42241 13.1974 6.30419 12.7756L6.22064 12.9269C6.15849 12.9435 6.09858 12.9605 6.06178 13.0043C5.88772 13.2257 5.74614 13.8307 5.62445 14.098C5.36902 14.5898 4.73662 14.2535 4.95826 13.7837C5.10508 13.4816 5.29595 13.3259 5.53685 12.7904C5.5548 12.7288 5.53918 12.6344 5.50399 12.582L5.57093 12.4212C4.58982 11.84 3.81511 10.9135 3.44545 9.76727L3.28476 9.79483C3.24726 9.75408 3.15507 9.71362 3.07285 9.72001C2.87609 9.74855 2.65269 9.77618 2.43029 9.90902C1.40375 10.5222 1.03423 9.20658 2.28853 9.28848C2.77736 9.3204 2.97563 9.24778 3.10756 9.01996L3.26186 8.97507C3.08898 7.77727 3.38159 6.60177 4.01395 5.65008L3.89582 5.54461C3.88832 5.49859 3.87846 5.39227 3.82185 5.33198C3.357 4.93488 3.1629 4.93569 2.89172 4.70665C2.46461 4.37226 2.91905 3.79182 3.34615 4.12621C3.5991 4.32623 3.73907 4.57721 4.16752 4.89799C4.25415 4.94842 4.32071 4.92813 4.38655 4.91928L4.51958 5.01379C5.20616 4.29069 6.24976 3.66153 7.59413 3.53556L7.60276 3.37966C7.65187 3.33215 7.70687 3.26386 7.7225 3.18904C7.76007 2.80918 7.63199 2.35725 7.63118 2.0652C7.63778 1.53523 8.3485 1.50506 8.36828 2.0652C8.37658 2.39197 8.26893 2.56586 8.27695 3.18904C8.29148 3.28821 8.34944 3.32746 8.39741 3.37336L8.40605 3.53789C9.57799 3.642 10.6663 4.17787 11.4656 5.01612L11.6058 4.91607C11.6533 4.9189 11.758 4.9333 11.8295 4.89172C12.0147 4.77275 12.292 4.47916 12.5698 4.18451C12.9822 3.75904 13.5678 4.26227 13.1108 4.69556C12.8821 4.89224 12.589 4.97131 12.1752 5.32486C12.1067 5.39807 12.1119 5.46747 12.1058 5.53356L11.9752 5.65093C12.651 6.70379 12.9142 7.75144 12.743 8.96792L12.8919 9.01124C12.9186 9.04913 12.9736 9.14118 13.0509 9.1712C13.3718 9.27352 13.694 9.27594 14.1188 9.32078C14.7605 9.38851 14.5173 10.2182 13.9007 10.028Z" fill="#64B5F6"/>
</g>
<defs>
<clipPath id="clip0_6003_37">
<rect width="16" height="16" fill="white"/>
</clipPath>
</defs>
</svg>
