<svg width="16" height="16" viewBox="0 0 16 16" fill="none" xmlns="http://www.w3.org/2000/svg">
<path d="M5.96981 5.86544V4.90905C6.06261 4.90243 6.15641 4.89749 6.25199 4.89449C8.86769 4.81227 10.5838 7.142 10.5838 7.142C10.5838 7.142 8.73032 9.7163 6.74307 9.7163C6.45686 9.7163 6.2007 9.67015 5.96981 9.59264V6.69259C6.98808 6.81561 7.19281 7.26542 7.80518 8.28586L9.16677 7.13785C9.16677 7.13785 8.17284 5.83431 6.4974 5.83431C6.3151 5.83431 6.14085 5.84713 5.96981 5.86544ZM5.96981 2.70618V4.13472C6.06368 4.12727 6.15769 4.12136 6.25199 4.11789C9.88947 3.99537 12.2593 7.10106 12.2593 7.10106C12.2593 7.10106 9.53723 10.4111 6.70153 10.4111C6.44169 10.4111 6.19843 10.387 5.96981 10.3466V11.2296C6.1653 11.2545 6.36779 11.2691 6.57914 11.2691C9.21816 11.2691 11.1266 9.9215 12.9746 8.32639C13.2808 8.57174 14.5352 9.16851 14.7932 9.43012C13.0359 10.901 8.94116 12.0866 6.61975 12.0866C6.39604 12.0866 6.18086 12.0731 5.96981 12.0528V13.2937H16V2.70618H5.96981ZM5.96981 9.59264V10.3466C3.52902 9.91142 2.8516 7.37422 2.8516 7.37422C2.8516 7.37422 4.02344 6.07581 5.96981 5.86544V6.69259C5.96827 6.69259 5.96731 6.69219 5.966 6.69219C4.9447 6.56954 4.14663 7.52389 4.14663 7.52389C4.14663 7.52389 4.59373 9.13031 5.96981 9.59264ZM1.63471 7.26429C1.63471 7.26429 3.08128 5.12971 5.96981 4.90905V4.13472C2.77052 4.39144 0 7.10106 0 7.10106C0 7.10106 1.56903 11.6375 5.96981 12.0528V11.2296C2.74047 10.8233 1.63471 7.26429 1.63471 7.26429Z" fill="#AED581"/>
</svg>
