<svg width="12" height="12" viewBox="0 0 12 12" fill="none" xmlns="http://www.w3.org/2000/svg">
<g clip-path="url(#clip0_6050_163)">
<path fill-rule="evenodd" clip-rule="evenodd" d="M8.25947 1.06997C8.77202 0.557405 9.60302 0.557407 10.1156 1.06997L10.9299 1.88431C11.4425 2.39687 11.4425 3.2279 10.9299 3.74047L4.47269 10.1977C4.31496 10.3554 4.11965 10.4703 3.90518 10.5316L1.46705 11.2282C1.27062 11.2844 1.05922 11.2296 0.914769 11.0851C0.770319 10.9407 0.715537 10.7293 0.771654 10.5329L1.46827 8.09471C1.52954 7.88029 1.64447 7.68491 1.80219 7.52718L8.25947 1.06997ZM9.32012 1.86547C9.24685 1.79224 9.12812 1.79224 9.05492 1.86547L8.10797 2.81239L9.18752 3.89189L10.1345 2.94497C10.2077 2.87175 10.2077 2.75303 10.1345 2.67981L9.32012 1.86547ZM8.392 4.68739L7.31252 3.60788L2.59769 8.32271C2.57516 8.34521 2.55874 8.37311 2.54998 8.40378L2.13152 9.86838L3.59612 9.44989C3.62675 9.44119 3.65465 9.42476 3.67719 9.40218L8.392 4.68739Z" fill="#1F2328"/>
</g>
<defs>
<clipPath id="clip0_6050_163">
<rect width="12" height="12" fill="white"/>
</clipPath>
</defs>
</svg>
