<svg width="16" height="16" viewBox="0 0 16 16" fill="none" xmlns="http://www.w3.org/2000/svg">
<path d="M7.949 1C4.395 1 4.617 2.549 4.617 2.549V4.154H8.013V4.636H3.274C3.274 4.636 1 4.377 1 7.982C1 11.587 2.985 11.459 2.985 11.459H4.169V9.786C4.15352 9.52331 4.19307 9.26029 4.28511 9.01377C4.37715 8.76724 4.51966 8.54266 4.7035 8.35439C4.88735 8.16612 5.10848 8.01832 5.35274 7.92044C5.59701 7.82256 5.85902 7.77677 6.122 7.786H9.487C9.73354 7.79694 9.97972 7.75734 10.2104 7.66965C10.4411 7.58195 10.6514 7.44801 10.8284 7.27605C11.0054 7.1041 11.1454 6.89776 11.2397 6.66972C11.3341 6.44168 11.3808 6.19676 11.377 5.95V2.868C11.377 2.868 11.664 1 7.949 1ZM6.079 2.079C6.20037 2.07841 6.31918 2.11385 6.42038 2.18085C6.52158 2.24784 6.60062 2.34337 6.64747 2.45533C6.69433 2.56729 6.7069 2.69063 6.68358 2.80974C6.66027 2.92885 6.60213 3.03835 6.51652 3.12438C6.43091 3.21041 6.32169 3.2691 6.2027 3.29299C6.08371 3.31689 5.9603 3.30493 5.84811 3.25862C5.73593 3.21231 5.64001 3.13375 5.57252 3.03287C5.50503 2.932 5.469 2.81337 5.469 2.692C5.46874 2.61168 5.48431 2.53209 5.51484 2.4578C5.54536 2.3835 5.59024 2.31595 5.6469 2.25902C5.70355 2.20208 5.77088 2.15688 5.84503 2.12599C5.91917 2.0951 5.99868 2.07913 6.079 2.079ZM8.052 15C11.606 15 11.384 13.451 11.384 13.451V11.846H7.988V11.364H12.727C12.727 11.364 15 11.623 15 8.018C15 4.413 13.015 4.541 13.015 4.541H11.832V6.214C11.8475 6.47669 11.8079 6.73971 11.7159 6.98623C11.6238 7.23276 11.4813 7.45734 11.2975 7.64561C11.1137 7.83388 10.8925 7.98168 10.6483 8.07956C10.404 8.17744 10.142 8.22323 9.879 8.214H6.514C6.26746 8.20306 6.02128 8.24266 5.7906 8.33035C5.55993 8.41805 5.34962 8.55199 5.1726 8.72395C4.99559 8.8959 4.85561 9.10224 4.76127 9.33028C4.66693 9.55832 4.62021 9.80324 4.624 10.05V13.137C4.624 13.137 4.337 15 8.052 15ZM9.922 13.921C9.80063 13.9216 9.68182 13.8861 9.58062 13.8192C9.47942 13.7522 9.40038 13.6566 9.35353 13.5447C9.30667 13.4327 9.2941 13.3094 9.31742 13.1903C9.34073 13.0712 9.39887 12.9616 9.48448 12.8756C9.57009 12.7896 9.67931 12.7309 9.7983 12.707C9.91729 12.6831 10.0407 12.6951 10.1529 12.7414C10.2651 12.7877 10.361 12.8663 10.4285 12.9671C10.496 13.068 10.532 13.1866 10.532 13.308C10.5323 13.3883 10.5167 13.4679 10.4862 13.5422C10.4556 13.6165 10.4108 13.684 10.3541 13.741C10.2974 13.7979 10.2301 13.8431 10.156 13.874C10.0818 13.9049 10.0023 13.9209 9.922 13.921Z" fill="#FFCB6B"/>
</svg>
