<svg width="16" height="16" viewBox="0 0 16 16" fill="none" xmlns="http://www.w3.org/2000/svg">
<g clip-path="url(#clip0_1_4104)">
<path d="M2.3281 13.6184C-4.71233 5.98059 5.71295 -4.88475 13.729 2.43574C13.844 2.39141 14.233 1.70761 14.5844 1.04273C15.7191 4.34595 16.2647 7.04461 15.8748 9.25011C14.6924 15.9371 7.25187 17.7222 3.06206 14.2748C3.52958 14.2421 3.7317 14.0179 3.82947 13.7791C3.96625 13.4451 3.82965 13.0925 3.66152 12.9482C3.12364 12.4863 2.51681 12.8085 2.38108 13.2962C2.35282 13.3977 2.36045 13.5954 2.3281 13.6184ZM14.5037 1.78444C13.4245 3.67602 11.1547 5.36922 7.8851 5.45849C5.78978 5.51569 4.45144 5.92009 3.39783 7.10333C1.89608 8.78985 2.10381 11.2459 3.39279 12.2166C3.5253 12.3164 3.70451 12.4257 3.85735 12.4356C8.40599 11.5939 11.4535 10.4426 13.6373 6.54686C12.8953 8.99578 11.1766 10.5118 9.81133 11.5058C8.57795 12.4037 5.65296 13.0442 4.73438 13.4766C4.70039 13.5226 4.74441 13.5385 4.84314 13.5259C6.75466 13.282 8.63302 13.6734 10.7415 13.4601C15.4671 12.9821 17.0651 8.86582 14.5037 1.78444Z" fill="#C3E88D"/>
</g>
<defs>
<clipPath id="clip0_1_4104">
<rect width="16" height="16" fill="white"/>
</clipPath>
</defs>
</svg>
