<svg width="12" height="12" viewBox="0 0 12 12" fill="none" xmlns="http://www.w3.org/2000/svg">
<path fill-rule="evenodd" clip-rule="evenodd" d="M4.875 1.3125C4.875 1.20895 4.95895 1.125 5.0625 1.125H6.9375C7.04105 1.125 7.125 1.20895 7.125 1.3125V2.25H4.875V1.3125ZM8.25 1.3125V2.25H9.9375C10.2482 2.25 10.5 2.50184 10.5 2.8125C10.5 3.12316 10.2482 3.375 9.9375 3.375H2.0625C1.75184 3.375 1.5 3.12316 1.5 2.8125C1.5 2.50184 1.75184 2.25 2.0625 2.25H3.75V1.3125C3.75 0.587626 4.33763 0 5.0625 0H6.9375C7.66237 0 8.25 0.587626 8.25 1.3125ZM3.3722 5.00653C3.3413 4.69741 3.06565 4.47187 2.75653 4.50279C2.44741 4.5337 2.22188 4.80935 2.25279 5.11846L2.74775 10.0681C2.81485 10.739 3.37944 11.25 4.05374 11.25H7.94625C8.62058 11.25 9.18517 10.739 9.25222 10.0681L9.74722 5.11846C9.77812 4.80935 9.5526 4.5337 9.24345 4.50279C8.93438 4.47187 8.65868 4.69741 8.62778 5.00653L8.13285 9.95618C8.12325 10.052 8.04255 10.125 7.94625 10.125H4.05374C3.95741 10.125 3.87675 10.052 3.86716 9.95618L3.3722 5.00653Z" fill="#0B151D"/>
</svg>
